# AST/ASF file generated using VICON BodyLanguage
# -----------------------------------------------
:version 1.10
:name VICON
:units
  mass 1.0
  length 0.45
  angle deg
:documentation
   .ast/.asf automatically generated from VICON data using
   VICON BodyBuilder and BodyLanguage model FoxedUp or BRILLIANT.MOD
:root
   order TX TY TZ RX RY RZ
   axis XYZ
   position 0 0 0  
   orientation 0 0 0 
:bonedata
  begin
     id 1 
     name lhipjoint
     direction 0.623415 -0.642378 0.445763 
     length 2.49859 
     axis 0 0 0  XYZ
  end
  begin
     id 2 
     name lfemur
     direction 0.34202 -0.939693 0  
     length 6.69689  
     axis 0 0 20  XYZ
    dof rx ry rz
    limits (-160.0 20.0)
           (-70.0 70.0)
           (-60.0 70.0)
  end
  begin
     id 3 
     name ltibia
     direction 0.34202 -0.939693 0   
     length 7.37574   
     axis 0 0 20   XYZ
    dof rx
    limits (-10.0 170.0)
  end
  begin
     id 4 
     name lfoot
     direction 0.084323 -0.231675 0.969132   
     length 2.09111   
     axis -90 7.62852e-016 20   XYZ
    dof rx rz
    limits (-45.0 90.0)
           (-70.0 20.0)
  end
  begin
     id 5 
     name ltoes
     direction 1.5357e-011 -4.21957e-011 1   
     length 1.04989   
     axis -90 7.62852e-016 20   XYZ
    dof rx
    limits (-90.0 20.0)
  end
  begin
     id 6 
     name rhipjoint
     direction -0.605402 -0.653903 0.45376   
     length 2.45455  
     axis 0 0 0  XYZ 
  end
  begin
     id 7 
     name rfemur
     direction -0.34202 -0.939693 0   
     length 6.64523   
     axis 0 0 -20   XYZ
    dof rx ry rz
    limits (-160.0 20.0)
           (-70.0 70.0)
           (-70.0 60.0)
  end
  begin
     id 8 
     name rtibia
     direction -0.34202 -0.939693 0   
     length 7.3339   
     axis 0 0 -20   XYZ
    dof rx
    limits (-10.0 170.0)
 end
 begin
     id 9 
     name rfoot
     direction -0.120854 -0.332043 0.93549   
     length 2.23135  
     axis -90 -7.62852e-016 -20   XYZ
    dof rx rz
    limits (-45.0 90.0)
           (-20.0 70.0)
  end
  begin
     id 10 
     name rtoes
     direction -1.53563e-011 -4.21914e-011 1   
     length 1.10614   
     axis -90 -7.62852e-016 -20   XYZ
    dof rx
    limits (-90.0 20.0)
  end
  begin
     id 11 
     name lowerback
     direction 0.0319682 0.998615 -0.0417941   
     length 2.02718   
     axis 0 0 0   XYZ
    dof rx ry rz
    limits (-20.0 45.0)
           (-30.0 30.0)
           (-30.0 30.0)
  end
  begin
     id 12 
     name upperback
     direction 7.63181e-005 0.995808 0.0914691   
     length 1.97539   
     axis 0 0 0   XYZ
    dof rx ry rz
    limits (-20.0 45.0)
           (-30.0 30.0)
           (-30.0 30.0)
  end
  begin
     id 13 
     name thorax
     direction -0.016423 0.993627 0.111514   
     length 2.00349   
     axis 0 0 0   XYZ
    dof rx ry rz
    limits (-20.0 45.0)
           (-30.0 30.0)
           (-30.0 30.0)
  end
  begin
     id 14 
     name lowerneck
     direction -0.174763 0.981668 -0.0760716   
     length 1.71436   
     axis 0 0 0   XYZ
    dof rx ry rz
    limits (-20.0 45.0)
           (-30.0 30.0)
           (-30.0 30.0)
  end
  begin
     id 15 
     name upperneck
     direction 0.345458 0.934587 -0.0848868   
     length 1.72805   
     axis 0 0 0   XYZ
    dof rx ry rz
    limits (-20.0 45.0)
           (-30.0 30.0)
           (-30.0 30.0)
  end
  begin
     id 16
     name head
     direction 0.13001 0.989848 -0.0574291  
     length 1.767  
     axis 0 0 0   XYZ
    dof rx ry rz
    limits (-20.0 45.0)
           (-30.0 30.0)
           (-30.0 30.0)
  end
  begin
     id 17 
     name lclavicle
     direction 0.952951 0.290122 0.0878234  
     length 3.54654  
     axis 0 0 0   XYZ
    dof ry rz
    limits (-20.0 10.0)
           (0.0 20.0)
  end
  begin
     id 18 
     name lhumerus
     direction 1 -4.48957e-011 -4.56525e-028   
     length 5.19807   
     axis 180 -30 -90   XYZ
    dof rx ry rz
    limits (-60.0 90.0)
           (-90.0 90.0)
           (-90.0 90.0)
  end
  begin
     id 19
     name lradius
     direction 1 -4.48979e-011 -2.0317e-027   
     length 3.0937   
     axis 180 -30 -90   XYZ
    dof rx
    limits (-10.0 170.0)
  end
  begin
     id 20
     name lwrist
     direction 1 -4.48953e-011 -3.05809e-027   
     length 1.54685   
     axis 8.48514e-016 90 90   XYZ
    dof ry
    limits (-180.0 0.0)
 end
  begin
     id 21 
     name lhand
     direction 1 -4.48952e-011 -6.11639e-027   
     length 0.672632   
     axis 3.9013e-015 90 90   XYZ
    dof rx rz
    limits (-90.0 90.0)
           (-45.0 45.0)
  end
  begin
     id 22 
     name lfingers
     direction 1 -4.48925e-011 -1.22426e-026   
     length 0.542293   
     axis 7.80276e-015 90 90   XYZ
    dof rx
    limits (0.0 90.0)
  end
  begin
     id 23
     name lthumb
     direction 0.707107 -6.3486e-011 0.707107   
     length 0.778628   
     axis -90 45 5.37419e-014   XYZ
    dof rx rz
    limits (-45.0 45.0)
           (-45.0 45.0)
  end
  begin
     id 24 
     name rclavicle
     direction -0.960732 0.273675 -0.0457849   
     length 3.52079  
     axis 0 0 0   XYZ 
    dof ry rz
    limits (-10.0 20.0)
           (-20.0 0.0)
  end
  begin
     id 25 
     name rhumerus
     direction -1 -4.48976e-011 -1.63613e-027  
     length 5.45222   
     axis 180 30 90   XYZ
    dof rx ry rz
    limits (-90.0 60.0)
           (-90.0 90.0)
           (-90.0 90.0)
  end
  begin
     id 26 
     name rradius
     direction -1 -4.48957e-011 -7.00033e-028   
     length 3.01284   
     axis 180 30 90   XYZ
    dof rx
    limits (-10.0 170.0)
  end
  begin
     id 27 
     name rwrist
     direction -1 -4.48983e-011 -3.05543e-027   
     length 1.50642   
     axis 8.48514e-016 -90 -90   XYZ
    dof ry
    limits (-180.0 0.0)
  end
  begin
     id 28
     name rhand
     direction -1 -4.48984e-011 -6.11072e-027   
     length 0.622296   
     axis 3.9013e-015 -90 -90   XYZ
    dof rx rz
    limits (-90.0 90.0)
           (-45.0 45.0)
  end
  begin
     id 29
     name rfingers
     direction -1 -4.48865e-011 -1.22637e-026   
     length 0.501711   
     axis 7.80276e-015 -90 -90   XYZ
    dof rx
    limits (0.0 90.0)
  end
  begin
     id 30
     name rthumb
     direction -0.707107 -6.34932e-011 0.707107   
     length 0.72036   
     axis -90 -45 -5.37419e-014   XYZ
    dof rx rz
    limits (-45.0 45.0)
           (-45.0 45.0)
  end
:hierarchy
  begin
    root lhipjoint rhipjoint lowerback
    lhipjoint lfemur
    lfemur ltibia
    ltibia lfoot
    lfoot ltoes
    rhipjoint rfemur
    rfemur rtibia
    rtibia rfoot
    rfoot rtoes
    lowerback upperback
    upperback thorax
    thorax lowerneck lclavicle rclavicle
    lowerneck upperneck
    upperneck head
    lclavicle lhumerus
    lhumerus lradius
    lradius lwrist
    lwrist lhand lthumb
    lhand lfingers
    rclavicle rhumerus
    rhumerus rradius
    rradius rwrist
    rwrist rhand rthumb
    rhand rfingers
  end

#!OML:ASF H:\Not Pregnant\Project 1\Capture day 1\Session 1\non-pregnant.ASF
:FULLY-SPECIFIED
:DEGREES
344
root -4.33559 16.1507 20.1252 159.352 -82.3174 -150.082
lowerback -3.13596 2.97285 -2.36876
upperback -7.48871 3.69571 -0.609925
thorax -6.1384 1.85438 0.609174
lowerneck 19.1793 -9.64505 -30.4027
upperneck 2.21079 -23.323 39.736
head 6.72387 -14.2693 19.2233
rclavicle 1.12313e-014 5.56597e-015
rhumerus -35.4217 -10.0691 -82.0618
rradius 25.6127
rwrist 29.1911
rhand -6.45196 6.06973
rfingers 7.12502
rthumb 19.3978 -22.9827
lclavicle 1.12313e-014 5.56597e-015
lhumerus -48.1753 12.2782 65.4057
lradius 35.5272
lwrist 34.9443
lhand -12.2271 -11.7853
lfingers 7.12502
lthumb 13.8382 17.7343
rfemur -17.7379 4.5629 15.8332
rtibia 27.288
rfoot -19.8385 9.02025
rtoes -24.1624
lfemur -13.1766 -4.1291 7.19469
ltibia 26.5066
lfoot 6.33243 9.20579
ltoes -12.1181
345
root -4.31278 16.1608 20.0381 158.774 -82.4929 -149.602
lowerback -2.872 2.96698 -2.16145
upperback -7.4307 3.68814 -0.665812
thorax -6.20746 1.83931 0.424293
lowerneck 19.189 -9.63991 -30.4823
upperneck 2.0921 -23.2999 39.8028
head 6.70359 -14.2634 19.2774
rclavicle -1.07344e-014 -2.06736e-014
rhumerus -35.4324 -9.33022 -82.454
rradius 25.9475
rwrist 28.6401
rhand -6.48874 6.10947
rfingers 7.12502
rthumb 19.3625 -22.9465
lclavicle -1.07344e-014 -2.06736e-014
lhumerus -47.815 12.1145 65.854
lradius 35.1246
lwrist 34.0953
lhand -11.6779 -11.5317
lfingers 7.12502
lthumb 14.3674 17.9511
rfemur -17.6683 4.45454 16.1654
rtibia 27.3601
rfoot -19.8193 9.08309
rtoes -23.6985
lfemur -14.0249 -3.43835 6.62065
ltibia 27.9362
lfoot 4.10929 7.494
ltoes -13.103
346
root -4.28914 16.1695 19.9571 157.961 -82.6436 -148.875
lowerback -2.60315 2.97322 -1.85466
upperback -7.38309 3.69813 -0.725763
thorax -6.28389 1.8269 0.179035
lowerneck 19.2058 -9.639 -30.5522
upperneck 1.9727 -23.2791 39.8577
head 6.67884 -14.2577 19.3223
rclavicle -8.74653e-015 -1.90833e-014
rhumerus -35.4631 -8.59303 -82.8251
rradius 26.28
rwrist 28.0507
rhand -6.59789 6.12605
rfingers 7.12502
rthumb 19.2575 -22.9405
lclavicle -8.74653e-015 -1.90833e-014
lhumerus -47.4483 11.95 66.278
lradius 34.7238
lwrist 33.2639
lhand -10.9638 -11.298
lfingers 7.12502
lthumb 15.0554 18.1346
rfemur -17.6214 4.33536 16.5114
rtibia 27.425
rfoot -19.7908 9.17149
rtoes -23.1747
lfemur -14.9188 -2.84687 6.00762
ltibia 29.4763
lfoot 1.88271 6.12032
ltoes -14.4264
347
root -4.26504 16.1765 19.8804 157.032 -82.7694 -148.018
lowerback -2.34303 2.99156 -1.50176
upperback -7.34222 3.72646 -0.782334
thorax -6.36021 1.82075 -0.0887175
lowerneck 19.229 -9.64227 -30.625
upperneck 1.85268 -23.2655 39.9064
head 6.65497 -14.2553 19.3626
rclavicle -4.14466e-014 -1.27222e-014
rhumerus -35.5111 -7.8934 -83.1547
rradius 26.6024
rwrist 27.4613
rhand -6.78298 6.11396
rfingers 7.12502
rthumb 19.0795 -22.9702
lclavicle -4.14466e-014 -1.27222e-014
lhumerus -47.0801 11.7971 66.6857
lradius 34.3343
lwrist 32.4506
lhand -10.1245 -11.0899
lfingers 7.12502
lthumb 15.8638 18.2802
rfemur -17.6032 4.23335 16.8664
rtibia 27.5011
rfoot -19.7734 9.22839
rtoes -22.7108
lfemur -15.8338 -2.33292 5.35077
ltibia 31.0875
lfoot -0.305334 5.10529
ltoes -16.0804
348
root -4.24137 16.1816 19.8048 156.066 -82.8691 -147.12
lowerback -2.10167 3.01922 -1.1615
upperback -7.30136 3.76957 -0.82614
thorax -6.42791 1.82287 -0.335964
lowerneck 19.2537 -9.64998 -30.7075
upperneck 1.73457 -23.2608 39.9503
head 6.63589 -14.257 19.3998
rclavicle -1.43125e-014 -3.97569e-015
rhumerus -35.5676 -7.20839 -83.4387
rradius 26.9121
rwrist 26.8666
rhand -7.003 6.09855
rfingers 7.12502
rthumb 18.8679 -23.0064
lclavicle -1.43125e-014 -3.97569e-015
lhumerus -46.7132 11.6699 67.0736
lradius 33.9603
lwrist 31.6895
lhand -9.21032 -10.9445
lfingers 7.12502
lthumb 16.744 18.3535
rfemur -17.6025 4.21474 17.2308
rtibia 27.6042
rfoot -19.7693 9.19254
rtoes -22.2844
lfemur -16.7381 -1.85208 4.6552
ltibia 32.7331
lfoot -2.42138 4.38146
ltoes -18.0174
349
root -4.21849 16.1846 19.729 155.166 -82.9548 -146.287
lowerback -1.88669 3.04673 -0.87716
upperback -7.25809 3.81391 -0.852356
thorax -6.48305 1.82927 -0.532793
lowerneck 19.2727 -9.66253 -30.7848
upperneck 1.6228 -23.2564 39.9729
head 6.61445 -14.2553 19.4223
rclavicle -2.68359e-015 4.77083e-015
rhumerus -35.6258 -6.56304 -83.6647
rradius 27.1966
rwrist 26.3243
rhand -7.21032 6.12478
rfingers 7.12502
rthumb 18.6685 -22.9994
lclavicle -2.68359e-015 4.77083e-015
lhumerus -46.3615 11.5934 67.4331
lradius 33.6119
lwrist 30.9521
lhand -8.23737 -10.8273
lfingers 7.12502
lthumb 17.6804 18.3889
rfemur -17.6208 4.29137 17.5925
rtibia 27.7502
rfoot -19.7839 9.04329
rtoes -21.8998
lfemur -17.6195 -1.37646 3.9136
ltibia 34.3782
lfoot -4.42306 3.86228
ltoes -20.1072
350
root -4.19681 16.1857 19.6521 154.391 -83.0293 -145.574
lowerback -1.70838 3.07669 -0.666597
upperback -7.21111 3.86202 -0.860806
thorax -6.51952 1.84237 -0.66854
lowerneck 19.287 -9.68207 -30.8579
upperneck 1.51468 -23.2561 39.9776
head 6.59226 -14.2527 19.431
rclavicle 3.33958e-014 1.27222e-014
rhumerus -35.6831 -5.93519 -83.8393
rradius 27.4575
rwrist 25.7981
rhand -7.4106 6.16542
rfingers 7.12502
rthumb 18.4759 -22.9772
lclavicle 3.33958e-014 1.27222e-014
lhumerus -46.0237 11.549 67.7923
lradius 33.292
lwrist 30.2095
lhand -7.32565 -10.7557
lfingers 7.12502
lthumb 18.5576 18.3791
rfemur -17.6609 4.46489 17.9498
rtibia 27.9421
rfoot -19.8244 8.7664
rtoes -21.6114
lfemur -18.4725 -0.877679 3.12568
ltibia 35.9999
lfoot -6.28299 3.45665
ltoes -22.1803
351
root -4.17659 16.1852 19.5737 153.837 -83.1043 -145.079
lowerback -1.56807 3.10551 -0.546201
upperback -7.16146 3.90757 -0.858658
thorax -6.53832 1.85975 -0.741202
lowerneck 19.2976 -9.70329 -30.9269
upperneck 1.41701 -23.2563 39.9688
head 6.57054 -14.2485 19.4306
rclavicle 4.21423e-014 2.22639e-014
rhumerus -35.7389 -5.26601 -83.9891
rradius 27.6992
rwrist 25.2208
rhand -7.59309 6.20113
rfingers 7.12502
rthumb 18.3003 -22.958
lclavicle 4.21423e-014 2.22639e-014
lhumerus -45.7037 11.4791 68.186
lradius 33.0087
lwrist 29.4919
lhand -6.59337 -10.7401
lfingers 7.12502
lthumb 19.2619 18.326
rfemur -17.7183 4.72797 18.2858
rtibia 28.1777
rfoot -19.8817 8.38121
rtoes -21.3548
lfemur -19.2945 -0.321073 2.27805
ltibia 37.5797
lfoot -8.0001 3.05556
ltoes -24.0727
352
root -4.15721 16.1842 19.4967 153.432 -83.1803 -144.713
lowerback -1.4666 3.13143 -0.459341
upperback -7.11698 3.9482 -0.854223
thorax -6.54285 1.87652 -0.790734
lowerneck 19.3006 -9.72581 -30.9835
upperneck 1.33131 -23.2532 39.9432
head 6.54664 -14.2398 19.4184
rclavicle -8.74653e-015 1.27222e-014
rhumerus -35.7878 -4.61904 -84.1
rradius 27.9088
rwrist 24.6802
rhand -7.74062 6.25391
rfingers 7.12502
rthumb 18.1584 -22.9185
lclavicle -8.74653e-015 1.27222e-014
lhumerus -45.4072 11.3749 68.6279
lradius 32.7803
lwrist 28.8782
lhand -6.12295 -10.7671
lfingers 7.12502
lthumb 19.7142 18.2532
rfemur -17.816 5.01987 18.5988
rtibia 28.444
rfoot -19.9469 7.95875
rtoes -21.0783
lfemur -20.1146 0.279434 1.37105
ltibia 39.11
lfoot -9.5676 2.62762
ltoes -25.6569
353
root -4.13873 16.1827 19.421 153.222 -83.2592 -144.519
lowerback -1.40249 3.15438 -0.415402
upperback -7.07901 3.98344 -0.845731
thorax -6.53623 1.893 -0.81017
lowerneck 19.2995 -9.74064 -31.0566
upperneck 1.26325 -23.2479 39.9171
head 6.53034 -14.2304 19.4113
rclavicle -2.5345e-014 3.97569e-015
rhumerus -35.8295 -4.0416 -84.16
rradius 28.081
rwrist 24.1936
rhand -7.92071 6.23993
rfingers 7.12502
rthumb 17.9851 -22.9485
lclavicle -2.5345e-014 3.97569e-015
lhumerus -45.1377 11.1618 69.1769
lradius 32.6297
lwrist 28.4781
lhand -6.02919 -10.8106
lfingers 7.12502
lthumb 19.8043 18.2005
rfemur -17.9483 5.31235 18.8852
rtibia 28.7288
rfoot -20.0221 7.51045
rtoes -20.8131
lfemur -20.9323 0.950819 0.397901
ltibia 40.5828
lfoot -11.0001 2.13325
ltoes -26.8641
